<?xml version="1.0" encoding="UTF-8"?><svg id="doraditos" xmlns="http://www.w3.org/2000/svg" viewBox="0 0 144.04 23.62"><defs><style>.cls-1{fill:#ed1c24;}.cls-2{fill:#fbb016;}</style></defs><g id="doraditos-2"><g><path class="cls-2" d="M88.25,15.43c-.04,.15-.11,.33-.13,.53-.15,1.12-.04,2.19,.28,3.19,.16,.49,.44,.78,.77,.9,1.2,.43,2.41,.46,3.62-.08,.44-.2,.8-.62,.97-1.32,.19-.81,.29-1.64,.2-2.5-.04-.46-.15-.88-.32-1.07-1.83,1.25-3.57,1.45-5.4,.34Zm-.03-5.18c-.07,.31-.17,.56-.18,.81-.02,.65-.04,1.31,0,1.95,.08,1.31,.42,1.9,1.25,2.09,1.16,.28,2.33,.18,3.48-.21,.62-.21,.96-.74,.99-1.71,.03-.81-.05-1.64-.12-2.45-.03-.27-.19-.51-.3-.79-.36,.69-.63,.99-1.13,1.06-.76,.11-1.52,.19-2.28,.19-.61,0-1.21-.16-1.71-.95Zm2.15,.32c.48-.04,.84-.04,1.19-.1,.31-.05,.63-.11,.93-.25,.64-.28,.82-1.2,.39-1.96-.16-.28-.35-.54-.56-.68-1.19-.82-2.36-.67-3.49,.43-.33,.33-.54,.83-.46,1.46,.08,.63,.42,.85,.79,.93,.44,.09,.89,.12,1.2,.16Zm-1.71,9.89c-.15,.44-.08,.85,.05,1.24,.21,.66,.55,1.12,.99,1.37,1.12,.64,2.2,.51,3.22-.62,.48-.54,.73-1.52,.6-2.26-1.61,1.1-3.21,1.12-4.85,.28Z"/><path class="cls-2" d="M88.25,15.43c1.82,1.1,3.57,.91,5.4-.34,.17,.19,.27,.61,.32,1.07,.08,.85,0,1.69-.2,2.5-.17,.7-.53,1.12-.97,1.32-1.21,.54-2.42,.51-3.62,.08-.33-.12-.61-.41-.77-.9-.32-1-.43-2.06-.28-3.19,.03-.2,.1-.38,.13-.53Z"/><path class="cls-2" d="M88.22,10.25c.5,.79,1.1,.94,1.71,.95,.76,0,1.52-.08,2.28-.19,.5-.07,.77-.37,1.13-1.06,.11,.28,.28,.51,.3,.79,.07,.81,.15,1.63,.12,2.45-.04,.97-.37,1.5-.99,1.71-1.16,.39-2.32,.49-3.48,.21-.83-.2-1.18-.78-1.25-2.09-.04-.64-.02-1.3,0-1.95,0-.25,.1-.49,.18-.81Z"/><path class="cls-2" d="M90.37,10.58c-.32-.04-.76-.07-1.2-.16-.36-.08-.7-.3-.79-.93-.09-.63,.12-1.14,.46-1.46,1.13-1.1,2.3-1.26,3.49-.43,.21,.15,.41,.41,.56,.68,.43,.76,.24,1.67-.39,1.96-.3,.14-.62,.2-.93,.25-.35,.06-.71,.06-1.19,.1Z"/><path class="cls-2" d="M88.66,20.46c1.64,.84,3.24,.82,4.85-.28,.13,.74-.12,1.73-.6,2.26-1.02,1.14-2.1,1.26-3.22,.62-.44-.25-.78-.71-.99-1.37-.12-.39-.2-.79-.05-1.24Z"/></g><path class="cls-1" d="M90.89,2.3s-.01-.01-.01-.02c-.18-.21-.38-.38-.62-.5-.17-.09-.35-.14-.55-.14-.19,0-.38,.04-.55,.14-.22,.11-.38,.28-.49,.5-.14,.26-.15,.54-.11,.83,.04,.25,.13,.48,.25,.69,.16,.28,.35,.53,.57,.76,.17,.18,.35,.34,.54,.5,.3,.24,.61,.46,.94,.65,.02,.01,.03,.01,.06,0,.22-.13,.43-.27,.63-.41,.26-.19,.51-.39,.74-.62,.18-.17,.34-.36,.49-.56,.19-.26,.34-.55,.42-.86,.06-.26,.08-.51,0-.77-.08-.26-.23-.47-.45-.63-.16-.11-.34-.18-.54-.2-.12-.01-.23-.01-.34,.01-.23,.05-.43,.16-.62,.3-.13,.1-.25,.21-.36,.34Z"/><path class="cls-2" d="M137.22,23.62c-.94,0-1.93-.1-2.97-.29-1.05-.2-1.98-.53-2.81-1.01-.35-.22-.59-.47-.73-.77-.14-.29-.2-.59-.16-.88,.03-.29,.14-.55,.33-.77,.18-.22,.42-.36,.72-.42,.29-.07,.61-.01,.96,.16,.87,.41,1.69,.7,2.45,.87,.76,.16,1.51,.24,2.25,.24,1.05,0,1.82-.18,2.34-.54,.51-.36,.77-.83,.77-1.42,0-.5-.17-.89-.51-1.16-.34-.27-.84-.47-1.52-.6l-3.27-.62c-1.35-.26-2.38-.76-3.09-1.49-.71-.73-1.06-1.67-1.06-2.83,0-1.05,.29-1.95,.87-2.71,.58-.76,1.38-1.35,2.4-1.76,1.02-.41,2.2-.62,3.53-.62,.96,0,1.86,.1,2.69,.31,.84,.21,1.65,.53,2.43,.96,.33,.17,.55,.4,.67,.69,.12,.28,.15,.57,.08,.87-.07,.29-.2,.56-.39,.78-.2,.23-.44,.37-.73,.42-.29,.05-.63,0-1-.18-.68-.35-1.32-.6-1.94-.75-.62-.15-1.21-.23-1.78-.23-1.07,0-1.86,.19-2.37,.56-.51,.37-.77,.86-.77,1.47,0,.46,.15,.84,.46,1.14,.3,.31,.77,.51,1.4,.62l3.27,.62c1.42,.26,2.49,.74,3.22,1.44,.73,.7,1.09,1.63,1.09,2.81,0,1.59-.62,2.84-1.86,3.74-1.24,.9-2.9,1.36-4.96,1.36Z"/><path class="cls-2" d="M127.88,8.26c-.28,.35-.58,.54-.9,.59-.32,.04-.59-.02-.83-.18-.24-.16-.37-.4-.39-.72-.02-.32,.12-.66,.42-1.03,.44-.54,.73-1.09,.88-1.63,.15-.54,.23-1.02,.23-1.44l.16,1.08c-.76,0-1.38-.22-1.85-.65-.47-.44-.7-1.02-.7-1.76s.22-1.3,.65-1.75c.44-.45,1.02-.67,1.76-.67s1.36,.26,1.8,.77c.44,.51,.65,1.25,.65,2.2,0,.52-.05,1.06-.15,1.62-.1,.56-.28,1.13-.56,1.73-.27,.6-.67,1.21-1.19,1.85Z"/><path class="cls-2" d="M115.77,23.62c-1.66,0-3.09-.34-4.31-1.01-1.22-.67-2.17-1.64-2.84-2.89-.68-1.25-1.01-2.73-1.01-4.43,0-1.28,.19-2.43,.57-3.45,.38-1.01,.93-1.88,1.65-2.61,.72-.73,1.58-1.28,2.58-1.67,1-.38,2.12-.57,3.36-.57,1.65,0,3.09,.34,4.31,1.01,1.22,.68,2.17,1.63,2.84,2.87,.67,1.24,1.01,2.71,1.01,4.41,0,1.29-.19,2.44-.57,3.46-.38,1.02-.93,1.9-1.65,2.63-.72,.73-1.58,1.29-2.58,1.67-1,.38-2.12,.57-3.36,.57Zm0-3.1c.81,0,1.51-.2,2.12-.59,.61-.39,1.08-.97,1.42-1.75,.34-.77,.51-1.74,.51-2.89,0-1.74-.37-3.04-1.11-3.9-.74-.86-1.72-1.29-2.94-1.29-.81,0-1.51,.19-2.12,.57-.61,.38-1.08,.96-1.42,1.73-.34,.77-.51,1.74-.51,2.89,0,1.72,.37,3.02,1.11,3.9,.74,.88,1.72,1.32,2.94,1.32Z"/><path class="cls-2" d="M104.03,23.62c-1.42,0-2.6-.24-3.54-.72-.95-.48-1.65-1.18-2.11-2.11-.46-.93-.69-2.07-.69-3.45v-6.96h-1.7c-.52,0-.93-.14-1.21-.41-.28-.27-.42-.65-.42-1.13s.14-.88,.42-1.14c.28-.26,.69-.39,1.21-.39h1.7v-2.97c0-.67,.18-1.19,.54-1.54,.36-.35,.87-.52,1.52-.52s1.15,.17,1.5,.52c.35,.35,.52,.86,.52,1.54v2.97h3.46c.52,0,.93,.13,1.21,.39,.28,.26,.42,.64,.42,1.14s-.14,.85-.42,1.13c-.28,.27-.69,.41-1.21,.41h-3.46v6.73c0,1.05,.23,1.83,.69,2.35s1.2,.78,2.22,.78c.37,0,.7-.03,.98-.1,.28-.07,.53-.11,.75-.13,.26-.02,.48,.06,.65,.24,.17,.19,.26,.56,.26,1.13,0,.44-.07,.82-.21,1.16-.14,.34-.4,.57-.77,.7-.28,.09-.65,.17-1.11,.24-.46,.08-.86,.11-1.21,.11Z"/><path class="cls-2" d="M76.49,23.62c-1.39,0-2.62-.34-3.67-1.01-1.06-.67-1.88-1.64-2.47-2.89-.59-1.25-.88-2.73-.88-4.43s.29-3.2,.88-4.43c.59-1.23,1.41-2.18,2.47-2.86,1.06-.67,2.28-1.01,3.67-1.01s2.49,.33,3.48,.98c.99,.65,1.66,1.51,2.01,2.58h-.36V2.06c0-.67,.17-1.19,.52-1.54s.85-.52,1.5-.52,1.16,.17,1.52,.52c.36,.35,.54,.86,.54,1.54V21.46c0,.68-.17,1.19-.52,1.55-.35,.36-.85,.54-1.5,.54s-1.15-.18-1.5-.54c-.35-.36-.52-.88-.52-1.55v-2.55l.36,.98c-.33,1.13-.99,2.04-1.99,2.71-1,.68-2.18,1.01-3.53,1.01Zm1.14-3.1c.81,0,1.51-.2,2.12-.59,.61-.39,1.08-.97,1.42-1.75,.34-.77,.51-1.74,.51-2.89,0-1.74-.37-3.04-1.11-3.9-.74-.86-1.72-1.29-2.94-1.29-.81,0-1.51,.19-2.12,.57-.61,.38-1.08,.96-1.42,1.73-.34,.77-.51,1.74-.51,2.89,0,1.72,.37,3.02,1.11,3.9,.74,.88,1.72,1.32,2.94,1.32Z"/><path class="cls-2" d="M58.66,23.62c-1.15,0-2.18-.22-3.09-.67-.9-.45-1.61-1.05-2.12-1.81-.51-.76-.77-1.62-.77-2.58,0-1.18,.3-2.11,.91-2.79,.61-.69,1.6-1.18,2.97-1.49,1.37-.3,3.21-.46,5.52-.46h1.63v2.35h-1.6c-1.35,0-2.43,.07-3.23,.2-.81,.13-1.38,.35-1.71,.67-.34,.32-.51,.76-.51,1.32,0,.72,.25,1.31,.75,1.76,.5,.46,1.2,.69,2.09,.69,.72,0,1.36-.17,1.91-.51,.56-.34,1-.8,1.32-1.39,.33-.59,.49-1.26,.49-2.03v-3.76c0-1.09-.24-1.87-.72-2.35-.48-.48-1.29-.72-2.42-.72-.63,0-1.31,.08-2.04,.23-.73,.15-1.5,.41-2.3,.78-.41,.2-.78,.25-1.09,.16-.32-.09-.56-.27-.73-.54-.17-.27-.26-.57-.26-.9s.09-.65,.26-.96c.17-.32,.47-.55,.88-.7,1-.41,1.96-.71,2.89-.88,.93-.17,1.77-.26,2.53-.26,1.57,0,2.86,.24,3.87,.72,1.01,.48,1.77,1.2,2.27,2.17,.5,.97,.75,2.22,.75,3.74v7.84c0,.68-.16,1.19-.49,1.55s-.8,.54-1.4,.54-1.08-.18-1.42-.54c-.34-.36-.51-.88-.51-1.55v-1.57h.26c-.15,.76-.45,1.42-.9,1.98-.45,.56-1.01,.99-1.68,1.29-.68,.3-1.45,.46-2.32,.46Z"/><path class="cls-2" d="M43.59,23.55c-.68,0-1.19-.18-1.55-.54-.36-.36-.54-.88-.54-1.55V9.11c0-.67,.17-1.19,.52-1.54s.84-.52,1.47-.52,1.12,.17,1.47,.52c.35,.35,.52,.86,.52,1.54v2.06h-.33c.3-1.31,.9-2.3,1.8-2.97,.89-.67,2.08-1.08,3.56-1.21,.46-.04,.82,.07,1.09,.34,.27,.27,.43,.69,.47,1.26,.04,.54-.08,.99-.38,1.32-.29,.34-.73,.54-1.32,.6l-.72,.07c-1.33,.13-2.33,.54-3,1.22-.68,.69-1.01,1.65-1.01,2.89v6.76c0,.68-.17,1.19-.52,1.55-.35,.36-.86,.54-1.54,.54Z"/><path class="cls-2" d="M2.22,23.29c-.72,0-1.27-.19-1.65-.57-.38-.38-.57-.93-.57-1.65V2.48C0,1.76,.19,1.21,.57,.83c.38-.38,.93-.57,1.65-.57h6.34c3.85,0,6.83,.99,8.93,2.97,2.1,1.98,3.15,4.82,3.15,8.53,0,1.85-.27,3.49-.8,4.92-.53,1.43-1.32,2.63-2.35,3.61-1.03,.98-2.3,1.73-3.79,2.24-1.49,.51-3.21,.77-5.14,.77H2.22Zm1.96-3.46h4.12c1.35,0,2.52-.17,3.51-.51,.99-.34,1.82-.84,2.48-1.5,.66-.66,1.16-1.5,1.49-2.52s.49-2.19,.49-3.54c0-2.7-.66-4.71-1.99-6.04-1.33-1.33-3.32-1.99-5.98-1.99H4.18V19.83Z"/><path class="cls-2" d="M30.93,23.62c-1.66,0-3.09-.34-4.31-1.01-1.22-.67-2.17-1.64-2.84-2.89-.68-1.25-1.01-2.73-1.01-4.43,0-1.28,.19-2.43,.57-3.45,.38-1.01,.93-1.88,1.65-2.61,.72-.73,1.58-1.28,2.58-1.67,1-.38,2.12-.57,3.36-.57,1.65,0,3.09,.34,4.31,1.01,1.22,.68,2.17,1.63,2.84,2.87,.67,1.24,1.01,2.71,1.01,4.41,0,1.29-.19,2.44-.57,3.46-.38,1.02-.93,1.9-1.65,2.63-.72,.73-1.58,1.29-2.58,1.67-1,.38-2.12,.57-3.36,.57Zm0-3.1c.81,0,1.51-.2,2.12-.59,.61-.39,1.08-.97,1.42-1.75,.34-.77,.51-1.74,.51-2.89,0-1.74-.37-3.04-1.11-3.9-.74-.86-1.72-1.29-2.94-1.29-.81,0-1.51,.19-2.12,.57-.61,.38-1.08,.96-1.42,1.73-.34,.77-.51,1.74-.51,2.89,0,1.72,.37,3.02,1.11,3.9,.74,.88,1.72,1.32,2.94,1.32Z"/></g></svg>